<svg width="1024" height="1024" xmlns="http://www.w3.org/2000/svg">
 <g>
  <path fill="#3bb779" fill-rule="nonzero" d="m1024,1024l-1024,0l0,-1024l1024,0l0,1024z"/>
  <path fill="#ffffff" fill-rule="nonzero" d="m510.802494,347.397079c62.886453,0 113.870241,50.983792 113.870241,113.870239c0,62.901301 -50.983788,113.885093 -113.870241,113.885093c-62.886453,0 -113.870251,-50.983792 -113.870251,-113.885103c0,-62.886437 50.983798,-113.870229 113.870251,-113.870229m143.560016,251.798396c34.400318,-35.782263 55.575457,-84.358776 55.575457,-137.928167c0,-109.976981 -89.158481,-199.135453 -199.135473,-199.135453c-109.976992,0 -199.135483,89.158472 -199.135483,199.135453c0,53.911165 20.253837,101.581229 55.055365,137.437793c-104.478884,26.50979 -188.986269,82.055524 -237.963996,151.643719c104.419448,-51.637622 238.082879,-82.649917 383.797566,-82.649917c145.699823,0 279.378118,31.012295 383.782702,82.649917c-49.408665,-70.212306 -136.219312,-124.911027 -241.976137,-151.153344"/>
 </g>
</svg>

