/* XPM */
static char *renderdoc_icon_16x16[] = {
/* columns rows colors chars-per-pixel */
"16 16 41 1 ",
"  c #2323AAAA6767",
". c #2323ABAB6868",
"X c #2424ACAC6868",
"o c #2424ADAD6A6A",
"O c #2626AFAF6D6D",
"+ c #2626B0B06E6E",
"@ c #2727B0B06E6E",
"# c #2828B3B37171",
"$ c #2929B3B37272",
"% c #2929B4B47272",
"& c #2929B4B47373",
"* c #2A2AB5B57474",
"= c #3434B2B27373",
"- c #3D3DB0B07575",
"; c #3E3EB5B57979",
": c #4141B6B67C7C",
"> c #4747B5B57C7C",
", c #4F4FBBBB8484",
"< c #5757BABA8787",
"1 c #6565C1C19191",
"2 c #6B6BC6C69898",
"3 c #6B6BC7C79B9B",
"4 c #7A7AC8C89F9F",
"5 c #8A8ACECEAAAA",
"6 c #8C8CCFCFADAD",
"7 c #8E8ED1D1AEAE",
"8 c #9494D3D3B2B2",
"9 c #9797D4D4B4B4",
"0 c #A2A2D7D7BABA",
"q c #A5A5DBDBBFBF",
"w c #B2B2DFDFC8C8",
"e c #C2C2E5E5D2D2",
"r c #C4C4E6E6D4D4",
"t c #C5C5E8E8D6D6",
"y c #CCCCE9E9D9D9",
"u c #D6D6EDEDE0E0",
"i c #D8D8EEEEE2E2",
"p c #DFDFF1F1E8E8",
"a c #EEEEF8F8F3F3",
"s c #F0F0F9F9F4F4",
"d c white",
/* pixels */
"****************",
"****************",
"******%$*%******",
"*****%@oo@%*****",
"****$o9dd7o%****",
"****Owd0qdqO****",
"***%;d4o 5d=****",
"***%,d>@O<d:%***",
"***%.yu=-pe.$***",
"*%$o1uddddy1o$%*",
"*%<rsr8769rat<$*",
"*%33.O@OOOoo33$*",
"**##*******%@%%*",
"************%***",
"****************",
"****************"
};
