/* XPM */
static char *renderdoc_icon_32x32[] = {
/* columns rows colors chars-per-pixel */
"32 32 55 1 ",
"  c #2A2AB5B57474",
". c #2B2BB5B57575",
"X c #2E2EB6B67777",
"o c #3333B8B87A7A",
"O c #3535B9B97B7B",
"+ c #3838BABA7D7D",
"@ c #3C3CBBBB7F7F",
"# c #4040BDBD8282",
"$ c #4242BDBD8484",
"% c #4646BFBF8686",
"& c #4A4AC0C08989",
"* c #5050C2C28D8D",
"= c #5656C4C49191",
"- c #5959C5C59393",
"; c #5B5BC6C69494",
": c #5D5DC7C79595",
"> c #5F5FC8C89797",
", c #6060C8C89797",
"< c #6666CACA9B9B",
"1 c #6F6FCDCDA1A1",
"2 c #7070CDCDA2A2",
"3 c #7373CECEA3A3",
"4 c #7979D1D1A8A8",
"5 c #7E7ED2D2ABAB",
"6 c #8383D4D4AEAE",
"7 c #8989D6D6B2B2",
"8 c #8E8ED8D8B5B5",
"9 c #9090D8D8B7B7",
"0 c #9D9DDDDDBFBF",
"q c #A1A1DEDEC1C1",
"w c #A7A7E1E1C6C6",
"e c #A9A9E1E1C7C7",
"r c #ADADE3E3CACA",
"t c #B5B5E5E5CFCF",
"y c #BBBBE7E7D3D3",
"u c #C7C7ECECDADA",
"i c #C9C9ECECDCDC",
"p c #CECEEEEEDFDF",
"a c #D3D3F0F0E2E2",
"s c #DADAF2F2E7E7",
"d c #DBDBF3F3E8E8",
"f c #DFDFF4F4EAEA",
"g c #E0E0F4F4EBEB",
"h c #E1E1F5F5EBEB",
"j c #E2E2F5F5ECEC",
"k c #E7E7F7F7EFEF",
"l c #E9E9F7F7F1F1",
"z c #ECECF8F8F2F2",
"x c #EDEDF9F9F4F4",
"c c #F2F2FBFBF7F7",
"v c #F4F4FBFBF8F8",
"b c #F5F5FCFCF8F8",
"n c #F9F9FDFDFBFB",
"m c #FCFCFEFEFDFD",
"M c white",
/* pixels */
"                                ",
"                                ",
"                                ",
"                                ",
"                                ",
"                                ",
"                                ",
"                                ",
"             <wgdq:             ",
"           +iMMMMMMy.           ",
"           kMMMzxMMMa.          ",
"          0MMs;  <lMM6          ",
"         OMMl     @bMl          ",
"         ,MM8      eMM&         ",
"         1MM3      7MM;         ",
"         -MMq      yMM$         ",
"         .bMn$    =MMf          ",
"          4MMv5%%7MMM:          ",
"           fMMMMMMMMp           ",
"        ,tcMMMMMMMMMMzr-        ",
"      #pMMMMMnlsslnMMMMMu@      ",
"     3MMsq5:%o    o%:5wsMM3     ",
"    4k8#                #9j4    ",
"    3*                    *1    ",
"                                ",
"                                ",
"                                ",
"                                ",
"                                ",
"                                ",
"                                ",
"                                "
};
