<svg xmlns="http://www.w3.org/2000/svg" xmlns:xlink="http://www.w3.org/1999/xlink" width="251px" height="121px" version="1.1" style="background-color: rgb(255, 255, 255);"><defs/><g transform="translate(0.5,0.5)"><path d="M 160 0 L 220 30 L 160 60 Z" fill="#ffffff" stroke="#000000" stroke-miterlimit="10" transform="rotate(-90,190,30)" pointer-events="none"/><path d="M 190 0 L 250 30 L 190 60 Z" fill="#ffffff" stroke="#000000" stroke-miterlimit="10" stroke-dasharray="3 3" transform="rotate(90,220,30)" pointer-events="none"/><path d="M 160 60 L 220 90 L 160 120 Z" fill="#ffffff" stroke="#000000" stroke-miterlimit="10" stroke-dasharray="3 3" transform="rotate(90,190,90)" pointer-events="none"/><path d="M 130 0 L 190 30 L 130 60 Z" fill="#ffffff" stroke="#000000" stroke-miterlimit="10" stroke-dasharray="3 3" transform="rotate(90,160,30)" pointer-events="none"/><path d="M 30 0 L 90 30 L 30 60 Z" fill="#ffffff" stroke="#000000" stroke-miterlimit="10" transform="rotate(-90,60,30)" pointer-events="none"/><path d="M 60 0 L 120 30 L 60 60 Z" fill="#ffffff" stroke="#000000" stroke-miterlimit="10" stroke-dasharray="3 3" transform="rotate(90,90,30)" pointer-events="none"/><path d="M 30 60 L 90 90 L 30 120 Z" fill="#ffffff" stroke="#000000" stroke-miterlimit="10" stroke-dasharray="3 3" transform="rotate(90,60,90)" pointer-events="none"/><path d="M 0 0 L 60 30 L 0 60 Z" fill="#ffffff" stroke="#000000" stroke-miterlimit="10" stroke-dasharray="3 3" transform="rotate(90,30,30)" pointer-events="none"/></g></svg>
