<svg xmlns="http://www.w3.org/2000/svg" xmlns:xlink="http://www.w3.org/1999/xlink" width="241px" height="181px" version="1.1" style="background-color: rgb(255, 255, 255);"><defs/><g transform="translate(0.5,0.5)"><path d="M 150 60 L 210 90 L 150 120 Z" fill="#ffffff" stroke="#000000" stroke-miterlimit="10" transform="rotate(-90,180,90)" pointer-events="none"/><path d="M 180 60 L 240 90 L 180 120 Z" fill="#ffffff" stroke="#000000" stroke-miterlimit="10" stroke-dasharray="3 3" transform="rotate(90,210,90)" pointer-events="none"/><path d="M 150 120 L 210 150 L 150 180 Z" fill="#ffffff" stroke="#000000" stroke-miterlimit="10" stroke-dasharray="3 3" transform="rotate(90,180,150)" pointer-events="none"/><path d="M 30 60 L 90 90 L 30 120 Z" fill="#ffffff" stroke="#000000" stroke-miterlimit="10" transform="rotate(-90,60,90)" pointer-events="none"/><path d="M 90 120 L 150 150 L 90 180 Z" fill="#ffffff" stroke="#000000" stroke-miterlimit="10" stroke-dasharray="3 3" transform="rotate(90,120,150)" pointer-events="none"/><path d="M 30 120 L 90 150 L 30 180 Z" fill="#ffffff" stroke="#000000" stroke-miterlimit="10" stroke-dasharray="3 3" transform="rotate(90,60,150)" pointer-events="none"/><path d="M 0 60 L 60 90 L 0 120 Z" fill="#ffffff" stroke="#000000" stroke-miterlimit="10" stroke-dasharray="3 3" transform="rotate(90,30,90)" pointer-events="none"/><path d="M 60 0 L 120 30 L 60 60 Z" fill="#ffffff" stroke="#000000" stroke-miterlimit="10" stroke-dasharray="3 3" transform="rotate(-90,90,30)" pointer-events="none"/><path d="M 120 0 L 180 30 L 120 60 Z" fill="#ffffff" stroke="#000000" stroke-miterlimit="10" stroke-dasharray="3 3" transform="rotate(-90,150,30)" pointer-events="none"/><path d="M 90 60 L 150 90 L 90 120 Z" fill="#ffffff" stroke="#000000" stroke-miterlimit="10" transform="rotate(-90,120,90)" pointer-events="none"/><path d="M 120 60 L 180 90 L 120 120 Z" fill="#ffffff" stroke="#000000" stroke-miterlimit="10" transform="rotate(90,150,90)" pointer-events="none"/><path d="M 60 60 L 120 90 L 60 120 Z" fill="#ffffff" stroke="#000000" stroke-miterlimit="10" transform="rotate(90,90,90)" pointer-events="none"/></g></svg>
